<svg xmlns="http://www.w3.org/2000/svg" viewBox="0 0 727 727"><defs><style>.cls-1{fill:#ffbf4b;}.cls-2{fill:#d1422c;}.cls-3{fill:#46484d;}.cls-4{fill:#848891;}.cls-5{fill:#505257;}.cls-6{fill:#e0e6f5;}.cls-7{fill:#ffa584;}.cls-8{fill:#ffd659;}.cls-9{opacity:0.2;}.cls-10{fill:#fffefc;}.cls-11{fill:#d9b64c;}.cls-12{fill:#ba9d42;}.cls-13{fill:none;stroke:#505257;stroke-linecap:round;stroke-linejoin:round;stroke-width:13px;}</style></defs><title>avatar</title><g id="OBJECTS"><circle class="cls-1" cx="363.5" cy="363.5" r="363.5"/><rect class="cls-2" x="180.42" y="554.1" width="364.98" height="83.32" rx="27.27"/><path class="cls-3" d="M320.23,158.63A451.46,451.46,0,0,1,204.25,16a18,18,0,0,0-32,0c-27.72,53.89-37.21,115.79-19,174-8-6.16-19.12-10.06-27.15-16.22a199.11,199.11,0,0,0,56.46,136.43c29.13-12.12,60.62-20.8,87.28-37.68s50.8-38.84,65.81-66.59c4.13-7.64,7.61-16,7.07-24.69S327,164.1,320.23,158.63Z"/><path class="cls-4" d="M305.7,185.66l-86.52-91c-7-7.41-18.1-15.32-26.34-9.26-4.6,3.39-5.69,9.71-6.31,15.4a432.65,432.65,0,0,0,27.58,204.63,151.68,151.68,0,0,0,44.3-57.92c5.06-11.64,8.79-24.17,16.84-34S293,186.57,305.7,185.66Z"/><path class="cls-3" d="M406.77,158.63A451.46,451.46,0,0,0,522.75,16a18,18,0,0,1,32,0c27.72,53.89,37.21,115.79,19,174,8-6.16,19.12-10.06,27.15-16.22a199.11,199.11,0,0,1-56.46,136.43c-29.13-12.12-60.62-20.8-87.28-37.68s-50.8-38.84-65.81-66.59c-4.13-7.64-7.61-16-7.07-24.69S400,164.1,406.77,158.63Z"/><path class="cls-4" d="M421.3,185.66l86.52-91c7-7.41,18.1-15.32,26.34-9.26,4.6,3.39,5.69,9.71,6.31,15.4a432.65,432.65,0,0,1-27.58,204.63,151.68,151.68,0,0,1-44.3-57.92c-5.06-11.64-8.79-24.17-16.84-34S434,186.57,421.3,185.66Z"/><path class="cls-5" d="M600.56,427.36c0,130.27-106.14,169-237.06,169s-237.06-38.72-237.06-169S232.58,124.58,363.5,124.58,600.56,297.08,600.56,427.36Z"/><path class="cls-6" d="M394.43,328.49c-.07.24-.15.49-.21.73,0-.18,0-.37,0-.56l-.17.12v-2.27a85.31,85.31,0,0,0-7.32-28.07c-4.19-9-12.72-16.7-22.55-17.2v0c-.22,0-.43,0-.64,0s-.42,0-.64,0v0c-9.83.5-18.35,8.19-22.55,17.2A85.37,85.37,0,0,0,333,326.51v2.27l-.17-.12c0,.19,0,.38,0,.56-.06-.24-.14-.48-.2-.73-8.44-5.77-144.47-94.44-201.81,141.29,21.12,96.45,117.28,126.57,232.73,126.57s211.61-30.12,232.73-126.57C538.9,234.06,402.87,322.72,394.43,328.49Z"/><path class="cls-5" d="M396.36,422.66c0,11-14.71,37.56-32.86,37.56s-32.86-26.54-32.86-37.56,14.71-20,32.86-20S396.36,411.64,396.36,422.66Z"/><path class="cls-5" d="M424.69,472.68a5.86,5.86,0,0,0-8.25.87c-7.61,9.41-17.82,12.43-26.65,7.89-9.71-5-17.82-18.71-20.69-34.92a6.23,6.23,0,0,0-12.14,0c-2.87,16.21-11,29.92-20.69,34.92-8.83,4.54-19,1.52-26.65-7.89a5.87,5.87,0,0,0-9.13,7.38c7.57,9.36,17.45,14.34,27.35,14.34a29.94,29.94,0,0,0,13.8-3.4c8.79-4.52,16.32-13.55,21.39-25.07,5.06,11.52,12.6,20.55,21.38,25.07a30,30,0,0,0,13.81,3.4c9.9,0,19.78-5,27.35-14.34A5.87,5.87,0,0,0,424.69,472.68Z"/><ellipse class="cls-7" cx="234.99" cy="432.64" rx="42.84" ry="17.02"/><ellipse class="cls-7" cx="492" cy="432.64" rx="42.84" ry="17.02"/><circle class="cls-8" cx="362.33" cy="662.07" r="58.68"/><g class="cls-9"><path class="cls-10" d="M420,651.53a58.11,58.11,0,0,0-7.21-19.33l-80.38,80.37a58.48,58.48,0,0,0,19.34,7.22Z"/><path class="cls-10" d="M375.42,604.88l-70.29,70.28a58.67,58.67,0,0,0,19.55,31.91l82.65-82.65A58.67,58.67,0,0,0,375.42,604.88Z"/></g><circle class="cls-11" cx="362.33" cy="662.07" r="39.9"/><path class="cls-12" d="M362.33,692.58a39.89,39.89,0,0,1-39.62-35.21,40.62,40.62,0,0,0-.28,4.7,39.9,39.9,0,0,0,79.8,0,40.62,40.62,0,0,0-.29-4.7A39.89,39.89,0,0,1,362.33,692.58Z"/><polyline class="cls-13" points="495.94 386.33 463.1 360.5 435.25 390.5"/><polyline class="cls-13" points="231.25 386.33 264.08 360.5 291.94 390.5"/></g></svg>