<?xml version="1.0" encoding="utf-8"?>
<!-- Generator: Adobe Illustrator 24.0.3, SVG Export Plug-In . SVG Version: 6.00 Build 0)  -->
<svg version="1.1" id="Layer_1" xmlns="http://www.w3.org/2000/svg" xmlns:xlink="http://www.w3.org/1999/xlink" x="0px" y="0px"
	 viewBox="0 0 727 727" style="enable-background:new 0 0 727 727;" xml:space="preserve">
<style type="text/css">
	.st0{fill:#FFBF4B;}
	.st1{fill:#D1422C;}
	.st2{fill:#46484D;}
	.st3{fill:#848891;}
	.st4{fill:#505257;}
	.st5{fill:#E0E6F5;}
	.st6{fill:#FFA584;}
	.st7{fill:#FFD659;}
	.st8{opacity:0.2;}
	.st9{fill:#FFFEFC;}
	.st10{fill:#D9B64C;}
	.st11{fill:#BA9D42;}
	.st12{fill:none;stroke:#505257;stroke-width:13;stroke-linecap:round;stroke-linejoin:round;}
</style>
<title>avatar</title>
<g id="OBJECTS">
	<circle class="st0" cx="363.5" cy="363.5" r="363.5"/>
	<path class="st1" d="M207.7,554.1h310.4c15.1,0,27.3,12.2,27.3,27.3v28.8c0,15.1-12.2,27.3-27.3,27.3H207.7
		c-15.1,0-27.3-12.2-27.3-27.3v-28.8C180.4,566.3,192.6,554.1,207.7,554.1z"/>
	<path class="st2" d="M320.2,158.6c-48-39.1-87.5-87.6-116-142.6c-4.6-8.8-15.4-12.3-24.2-7.8c-3.3,1.7-6,4.4-7.8,7.8
		c-27.7,53.9-37.2,115.8-19,174c-8-6.2-19.1-10.1-27.2-16.2c0.6,51,20.9,99.9,56.5,136.4c29.1-12.1,60.6-20.8,87.3-37.7
		s50.8-38.8,65.8-66.6c4.1-7.6,7.6-16,7.1-24.7S327,164.1,320.2,158.6z"/>
	<path class="st3" d="M305.7,185.7l-86.5-91c-7-7.4-18.1-15.3-26.3-9.3c-4.6,3.4-5.7,9.7-6.3,15.4c-7.5,69.4,2,139.6,27.6,204.6
		c19.3-15.4,34.5-35.3,44.3-57.9c5.1-11.6,8.8-24.2,16.8-34S293,186.6,305.7,185.7z"/>
	<path class="st2" d="M406.8,158.6c48-39.1,87.5-87.6,116-142.6c4.6-8.8,15.4-12.3,24.2-7.8c3.3,1.7,6,4.4,7.8,7.8
		c27.7,53.9,37.2,115.8,19,174c8-6.2,19.1-10.1,27.2-16.2c-0.6,51-20.9,99.9-56.5,136.4c-29.1-12.1-60.6-20.8-87.3-37.7
		s-50.8-38.8-65.8-66.6c-4.1-7.6-7.6-16-7.1-24.7S400,164.1,406.8,158.6z"/>
	<path class="st3" d="M421.3,185.7l86.5-91c7-7.4,18.1-15.3,26.3-9.3c4.6,3.4,5.7,9.7,6.3,15.4c7.5,69.4-2,139.6-27.6,204.6
		c-19.3-15.4-34.5-35.3-44.3-57.9c-5.1-11.6-8.8-24.2-16.8-34S434,186.6,421.3,185.7z"/>
	<path class="st4" d="M600.6,427.4c0,130.3-106.1,169-237.1,169s-237.1-38.7-237.1-169s106.1-302.8,237.1-302.8
		S600.6,297.1,600.6,427.4z"/>
	<path class="st5" d="M394.4,328.5c-0.1,0.2-0.1,0.5-0.2,0.7c0-0.2,0-0.4,0-0.6l-0.2,0.1v-2.3c-0.8-9.7-3.3-19.2-7.3-28.1
		c-4.2-9-12.7-16.7-22.5-17.2l0,0c-0.2,0-0.4,0-0.6,0s-0.4,0-0.6,0l0,0c-9.8,0.5-18.4,8.2-22.5,17.2c-4,8.9-6.5,18.4-7.3,28.1v2.3
		l-0.2-0.1c0,0.2,0,0.4,0,0.6c-0.1-0.2-0.1-0.5-0.2-0.7c-8.4-5.8-144.5-94.4-201.8,141.3c21.1,96.5,117.3,126.6,232.7,126.6
		s211.6-30.1,232.7-126.6C538.9,234.1,402.9,322.7,394.4,328.5z"/>
	<path class="st4" d="M396.4,422.7c0,11-14.7,37.6-32.9,37.6s-32.9-26.5-32.9-37.6s14.7-20,32.9-20S396.4,411.6,396.4,422.7z"/>
	<path class="st4" d="M424.7,472.7c-2.5-2-6.2-1.7-8.2,0.9c0,0,0,0,0,0c-7.6,9.4-17.8,12.4-26.6,7.9c-9.7-5-17.8-18.7-20.7-34.9
		c-0.8-3.4-4.1-5.4-7.5-4.7c-2.3,0.5-4.1,2.3-4.7,4.7c-2.9,16.2-11,29.9-20.7,34.9c-8.8,4.5-19,1.5-26.6-7.9
		c-2.1-2.5-5.8-2.9-8.3-0.8c-2.5,2-2.9,5.7-0.9,8.2c7.6,9.4,17.5,14.3,27.4,14.3c4.8,0,9.5-1.2,13.8-3.4
		c8.8-4.5,16.3-13.5,21.4-25.1c5.1,11.5,12.6,20.5,21.4,25.1c4.3,2.2,9,3.4,13.8,3.4c9.9,0,19.8-5,27.4-14.3
		C427.6,478.4,427.2,474.7,424.7,472.7z"/>
	<ellipse class="st6" cx="235" cy="432.6" rx="42.8" ry="17"/>
	<ellipse class="st6" cx="492" cy="432.6" rx="42.8" ry="17"/>
	<circle class="st7" cx="362.3" cy="662.1" r="58.7"/>
	<g class="st8">
		<path class="st9" d="M420,651.5c-1.2-6.8-3.7-13.4-7.2-19.3l-80.4,80.4c6,3.5,12.5,6,19.3,7.2L420,651.5z"/>
		<path class="st9" d="M375.4,604.9l-70.3,70.3c2.9,12.5,9.7,23.7,19.5,31.9l82.6-82.7C399.1,614.6,387.9,607.7,375.4,604.9z"/>
	</g>
	<circle class="st10" cx="362.3" cy="662.1" r="39.9"/>
	<path class="st11" d="M362.3,692.6c-20.2,0-37.2-15.1-39.6-35.2c-0.2,1.6-0.3,3.1-0.3,4.7c0,22,17.9,39.9,39.9,39.9
		c22,0,39.9-17.9,39.9-39.9c0-1.6-0.1-3.1-0.3-4.7C399.6,677.4,382.5,692.6,362.3,692.6z"/>
	<polyline class="st12" points="495.9,386.3 463.1,360.5 435.2,390.5 	"/>
	<polyline class="st12" points="231.2,386.3 264.1,360.5 291.9,390.5 	"/>
</g>
</svg>
